HIERARCHY
ROOT Hips
{
  OFFSET 53.6183 97.8448 13.4927
  CHANNELS 6 Xposition Yposition Zposition Zrotation Xrotation Yrotation
  JOINT spine
  {
    OFFSET 0 8.30104 0.477351
    CHANNELS 3 Zrotation Xrotation Yrotation
    JOINT spine1
    {
      OFFSET 0 10.4565 0
      CHANNELS 3 Zrotation Xrotation Yrotation
      JOINT spine2
      {
        OFFSET 0 10.0192 0
        CHANNELS 3 Zrotation Xrotation Yrotation
        JOINT Neck
        {
          OFFSET 0 25.7235 1.22641
          CHANNELS 3 Zrotation Xrotation Yrotation
          JOINT Head
          {
            OFFSET 0 7.77175 0
            CHANNELS 3 Zrotation Xrotation Yrotation
            End Site
            {
              OFFSET 0 18.812 -6.20394
            }
          }
        }
        JOINT RightShoulder
        {
          OFFSET -4.2188 10.82 -0.587439
          CHANNELS 3 Zrotation Xrotation Yrotation
          JOINT RightArm
          {
            OFFSET 0 14.1914 0
            CHANNELS 3 Zrotation Xrotation Yrotation
            JOINT RightArmRoll
            {
              OFFSET 0 7.16409 0
              CHANNELS 3 Zrotation Xrotation Yrotation
              JOINT RightForeArm
              {
                OFFSET 0 20.8665 0
                CHANNELS 3 Zrotation Xrotation Yrotation
                JOINT RightForeArmRoll
                {
                  OFFSET 0 8.03921 0
                  CHANNELS 3 Zrotation Xrotation Yrotation
                  JOINT RightHand
                  {
                    OFFSET 0 16.133 0
                    CHANNELS 3 Zrotation Xrotation Yrotation
                    End Site
                    {
                      OFFSET 0 0 0
                    }
                  }
                }
              }
            }
          }
        }
        JOINT LeftShoulder
        {
          OFFSET 4.2188 10.82 -0.587439
          CHANNELS 3 Zrotation Xrotation Yrotation
          JOINT LeftArm
          {
            OFFSET 0 14.1914 0
            CHANNELS 3 Zrotation Xrotation Yrotation
            JOINT LeftArmRoll
            {
              OFFSET 0 7.16409 0
              CHANNELS 3 Zrotation Xrotation Yrotation
              JOINT LeftForeArm
              {
                OFFSET 0 20.8665 0
                CHANNELS 3 Zrotation Xrotation Yrotation
                JOINT LeftForeArmRoll
                {
                  OFFSET 0 8.03921 0
                  CHANNELS 3 Zrotation Xrotation Yrotation
                  JOINT LeftHand
                  {
                    OFFSET 0 16.133 0
                    CHANNELS 3 Zrotation Xrotation Yrotation
                    End Site
                    {
                      OFFSET 0 0 0
                    }
                  }
                }
              }
            }
          }
        }
      }
    }
  }
  JOINT RightUpLeg
  {
    OFFSET -7.35773 -1.34921 -1.13182
    CHANNELS 3 Zrotation Xrotation Yrotation
    JOINT RightUpLegRoll
    {
      OFFSET 0 18.9168 0
      CHANNELS 3 Zrotation Xrotation Yrotation
      JOINT RightLeg
      {
        OFFSET 0 -23.4256 0
        CHANNELS 3 Zrotation Xrotation Yrotation
        JOINT RightLegRoll
        {
          OFFSET 0 23.5023 0
          CHANNELS 3 Zrotation Xrotation Yrotation
          JOINT RightFoot
          {
            OFFSET 0 19.5617 0
            CHANNELS 3 Zrotation Xrotation Yrotation
            JOINT RightToeBase
            {
              OFFSET 0 16.3526 0
              CHANNELS 3 Zrotation Xrotation Yrotation
              End Site
              {
                OFFSET 0.00693125 7.91943 -0.912837
              }
            }
          }
        }
      }
    }
  }
  JOINT LeftUpLeg
  {
    OFFSET 7.35773 -1.34921 -1.13182
    CHANNELS 3 Zrotation Xrotation Yrotation
    JOINT LeftUpLegRoll
    {
      OFFSET 0 18.9169 0
      CHANNELS 3 Zrotation Xrotation Yrotation
      JOINT LeftLeg
      {
        OFFSET 0 23.4255 0
        CHANNELS 3 Zrotation Xrotation Yrotation
        JOINT LeftLegRoll
        {
          OFFSET 0 23.7195 0
          CHANNELS 3 Zrotation Xrotation Yrotation
          JOINT LeftFoot
          {
            OFFSET 0 19.3444 0
            CHANNELS 3 Zrotation Xrotation Yrotation
            JOINT LeftToeBase
            {
              OFFSET 0 16.3526 0
              CHANNELS 3 Zrotation Xrotation Yrotation
              End Site
              {
                OFFSET -0.0310629 7.91944 -0.912837
              }
            }
          }
        }
      }
    }
  }
}
MOTION
Frames: 13
Frame Time: 0.00208333
47.3823 97.6781 12.1767 0.918015 -3.03398 63.9432 -0.298018 -2.70331 0.304763 -0.583588 -1.40544 0.634302 -0.591147 0.239545 0.644038 29.548 27.6871 -4.30793 -29.1428 -10.0965 1.73661 55.7574 -13.4199 -8.50782 18.9053 35.1446 92.0232 1.49312e-006 8.46981e-006 8.56545e-007 -178.577 60.2258 -163.841 -1.09493e-005 -1.0366e-006 -3.00844 8.02898 -4.95134 0.69758 -52.0989 2.36116 -2.48702 -95.5915 24.6018 1.74865 1.65058e-005 2.92615e-006 -1.57411e-006 -20.823 83.5703 23.0974 5.04346e-006 3.70626e-006 3 -8.0289 -4.95144 -0.697711 172.926 0.611559 9.48089 180 7.01404e-015 178.421 171.973 33.3262 -179.056 1.61634e-007 2.66825e-006 0.584224 -17.3845 66.5941 18.4457 8.62423 43.5473 -1.37867 -175.646 13.9851 -0.683179 4.54188e-006 -4.6773e-006 -1.03819 -5.245 -22.1482 -0.0750026 3.1616e-006 -2.58271e-006 -0.30288 19.2206 68.6659 -20.0937 -8.13649 25.2327 3.48774 
47.4252 97.7088 12.2084 0.900428 -3.0759 64.3612 -0.302723 -2.7076 0.308896 -0.59278 -1.41406 0.642939 -0.60044 0.230918 0.652825 29.3808 27.5874 -4.4179 -28.8712 -10.0853 1.59191 55.8324 -13.3145 -8.43373 19.0443 35.6565 91.5009 1.49312e-006 8.46981e-006 8.56546e-007 -178.837 59.6724 -163.713 -1.09493e-005 -1.0366e-006 -3.00844 8.02898 -4.95134 0.69758 -52.2474 2.3355 -2.44503 -95.7147 24.766 2.12943 1.65058e-005 2.92615e-006 -1.57411e-006 -20.955 83.5428 23.2235 5.04346e-006 3.70626e-006 3 -8.0289 -4.95144 -0.697711 173.037 0.54681 9.44929 180 7.01404e-015 178.419 171.951 33.344 -179.048 1.61634e-007 2.66825e-006 0.586101 -17.3822 66.5963 18.4474 8.63958 43.3633 -1.4365 -175.637 13.992 -0.640241 4.54188e-006 -4.6773e-006 -1.03746 -5.19229 -22.1112 -0.0615869 3.1616e-006 -2.58271e-006 -0.302066 19.241 68.6886 -20.1137 -8.13649 25.2327 3.48774 
47.4567 97.6761 12.2368 0.884217 -3.11844 64.7778 -0.307562 -2.71149 0.313239 -0.602234 -1.4219 0.652012 -0.609999 0.223074 0.662053 29.2016 27.4922 -4.52562 -28.5845 -10.079 1.44794 55.9056 -13.2066 -8.35823 19.1982 36.1937 90.9254 1.49312e-006 8.46981e-006 8.56545e-007 -179.067 59.1539 -163.658 -1.09493e-005 -1.0366e-006 -3.00844 8.02898 -4.95134 0.69758 -52.4 2.30847 -2.40166 -95.8325 24.9275 2.51139 1.65058e-005 2.92615e-006 -1.57411e-006 -21.0862 83.5168 23.3489 5.04346e-006 3.70626e-006 3 -8.0289 -4.95144 -0.697711 173.148 0.480627 9.41593 180 7.01403e-015 178.417 171.931 33.3597 -179.041 1.61634e-007 2.66825e-006 0.587844 -17.3794 66.5978 18.4485 8.65425 43.18 -1.49349 -175.627 13.9951 -0.597563 4.54188e-006 -4.6773e-006 -1.0367 -5.13969 -22.0698 -0.0481174 3.1616e-006 -2.58271e-006 -0.30126 19.2607 68.7107 -20.1333 -8.13649 25.2327 3.48774 
47.514 97.7091 12.2721 0.869579 -3.16176 65.1924 -0.312518 -2.71492 0.317808 -0.61192 -1.4288 0.661548 -0.619797 0.216174 0.671748 29.0088 27.4018 -4.63059 -28.2808 -10.0784 1.30489 55.9771 -13.0962 -8.28132 19.3654 36.7578 90.2982 1.49312e-006 8.46981e-006 8.56545e-007 -179.266 58.6788 -163.686 -1.09493e-005 -1.0366e-006 -3.00844 8.02898 -4.95134 0.69758 -52.557 2.27975 -2.3567 -95.9437 25.0866 2.89394 1.65058e-005 2.92615e-006 -1.57411e-006 -21.2162 83.4917 23.4731 5.04346e-006 3.70626e-006 3 -8.0289 -4.95144 -0.697711 173.26 0.413385 9.3809 180 7.01403e-015 178.416 171.913 33.3741 -179.034 1.61634e-007 2.66825e-006 0.589417 -17.3759 66.5976 18.4484 8.66811 42.9993 -1.54902 -175.616 13.9936 -0.555085 4.54188e-006 -4.6773e-006 -1.03592 -5.0871 -22.0236 -0.0345512 3.1616e-006 -2.58271e-006 -0.300465 19.2797 68.7322 -20.1524 -8.13649 25.2327 3.48774 
47.5474 97.7364 12.2987 0.856713 -3.20603 65.6047 -0.317576 -2.71778 0.322616 -0.621811 -1.43459 0.671572 -0.629806 0.210382 0.681936 28.801 27.3166 -4.73231 -27.9586 -10.0841 1.16297 56.0467 -12.9834 -8.20299 19.5448 37.3501 89.6202 1.49312e-006 8.46981e-006 8.56545e-007 -179.431 58.2551 -163.804 -1.09493e-005 -1.0366e-006 -3.00844 8.02898 -4.95134 0.69758 -52.7185 2.24906 -2.30992 -96.0472 25.2436 3.27648 1.65058e-005 2.92615e-006 -1.57411e-006 -21.3447 83.4668 23.5957 5.04346e-006 3.70626e-006 3 -8.0289 -4.95144 -0.697711 173.372 0.345457 9.34429 180 7.01402e-015 178.414 171.898 33.388 -179.029 1.61634e-007 2.66825e-006 0.59078 -17.3712 66.5951 18.4466 8.68104 42.8232 -1.60252 -175.606 13.9869 -0.512751 4.54188e-006 -4.6773e-006 -1.03512 -5.03441 -21.9719 -0.0208457 3.1616e-006 -2.58271e-006 -0.299682 19.2978 68.7527 -20.1707 -8.13649 25.2327 3.48774 
47.5988 97.7507 12.3391 0.845825 -3.25141 66.0141 -0.322722 -2.72001 0.327676 -0.63188 -1.4391 0.682113 -0.64 0.205861 0.692643 28.577 27.2369 -4.83031 -27.6161 -10.0969 1.02238 56.1143 -12.8681 -8.12325 19.7351 37.9723 88.8925 1.49312e-006 8.46981e-006 8.56545e-007 -179.558 57.8909 -164.02 -1.09493e-005 -1.0366e-006 -3.00844 8.02898 -4.95134 0.69758 -52.8849 2.21609 -2.26109 -96.142 25.3989 3.65842 1.65058e-005 2.92615e-006 -1.57411e-006 -21.4713 83.4417 23.7161 5.04346e-006 3.70626e-006 3 -8.0289 -4.95144 -0.697711 173.482 0.277219 9.30619 180 7.01401e-015 178.412 171.886 33.4023 -179.024 1.61634e-007 2.66825e-006 0.591896 -17.3648 66.5893 18.4425 8.69293 42.6534 -1.65339 -175.596 13.9743 -0.470502 4.54188e-006 -4.6773e-006 -1.03428 -4.98152 -21.914 -0.0069586 3.1616e-006 -2.58271e-006 -0.298914 19.3147 68.7723 -20.1882 -8.13649 25.2327 3.48774 
47.6425 97.7382 12.3722 0.837996 -3.29643 66.4218 -0.328156 -2.72167 0.332926 -0.642524 -1.4425 0.693059 -0.650773 0.202459 0.703767 28.3404 27.164 -4.92666 -27.2546 -10.1172 0.882162 56.1834 -12.7487 -8.0411 19.9646 38.6207 88.0585 1.49312e-006 8.46981e-006 8.56545e-007 -179.647 57.5579 -164.35 -1.09493e-005 -1.0366e-006 -3.00844 8.02898 -4.95134 0.69758 -53.0558 2.18167 -2.21066 -96.2299 25.5497 4.04105 1.65058e-005 2.92615e-006 -1.57411e-006 -21.5961 83.4174 23.8347 5.04346e-006 3.70626e-006 3 -8.0289 -4.95144 -0.697711 173.594 0.206095 9.26533 180 7.01401e-015 178.41 171.877 33.4146 -179.021 1.61634e-007 2.66825e-006 0.592799 -17.3578 66.5821 18.4374 8.70379 42.4849 -1.70201 -175.585 13.954 -0.428303 4.54188e-006 -4.6773e-006 -1.0334 -4.9281 -21.8485 0.00720556 3.1616e-006 -2.58271e-006 -0.298149 19.3303 68.7907 -20.2046 -8.13649 25.2327 3.48774 
47.7626 97.7852 12.4333 0.833815 -3.3397 66.8293 -0.334042 -2.72293 0.338304 -0.654068 -1.44508 0.704301 -0.66245 0.199874 0.715201 28.0957 27.0982 -5.02351 -26.877 -10.1445 0.74137 56.2563 -12.6239 -7.95584 20.2626 39.284 87.0638 1.49312e-006 8.46981e-006 8.56545e-007 -179.704 57.2251 -164.79 -1.09493e-005 -1.0366e-006 -3.00844 8.02898 -4.95134 0.69758 -53.2305 2.14675 -2.15922 -96.3134 25.6934 4.42597 1.65058e-005 2.92615e-006 -1.57411e-006 -21.72 83.3953 23.9526 5.04346e-006 3.70626e-006 3 -8.0289 -4.95144 -0.697711 173.707 0.129759 9.22066 180 7.014e-015 178.408 171.872 33.4224 -179.019 1.61634e-007 2.66825e-006 0.593559 -17.3513 66.5756 18.4327 8.71375 42.3115 -1.74931 -175.573 13.9257 -0.386199 4.54188e-006 -4.6773e-006 -1.0325 -4.87404 -21.7751 0.021665 3.1616e-006 -2.58271e-006 -0.297377 19.3446 68.8079 -20.2201 -8.13649 25.2327 3.48774 
47.792 97.7838 12.4646 0.832736 -3.38144 67.2364 -0.340312 -2.7238 0.343824 -0.666373 -1.44691 0.71586 -0.674892 0.198048 0.726967 27.8426 27.0389 -5.1204 -26.4841 -10.1781 0.600221 56.3318 -12.4945 -7.86789 20.6297 39.952 85.9138 1.49312e-006 8.46981e-006 8.56545e-007 -179.74 56.8963 -165.324 -1.09493e-005 -1.0366e-006 -3.00844 8.02898 -4.95134 0.69758 -53.4092 2.11121 -2.10676 -96.3923 25.831 4.81304 1.65058e-005 2.92615e-006 -1.57411e-006 -21.8434 83.3756 24.0702 5.04346e-006 3.70626e-006 3 -8.0289 -4.95144 -0.697711 173.823 0.0489621 9.17264 180 7.01399e-015 178.406 171.869 33.426 -179.017 1.61634e-007 2.66825e-006 0.594188 -17.3454 66.5696 18.4284 8.72294 42.134 -1.79563 -175.56 13.8905 -0.344255 4.54188e-006 -4.6773e-006 -1.03156 -4.81954 -21.6948 0.0363459 3.1616e-006 -2.58271e-006 -0.296602 19.3579 68.8241 -20.2346 -8.13649 25.2327 3.48774 
47.8573 97.8047 12.4959 0.834228 -3.42184 67.6429 -0.346896 -2.72432 0.349502 -0.679301 -1.44803 0.727763 -0.687962 0.196923 0.739086 27.5807 26.9853 -5.21691 -26.0768 -10.2173 0.458931 56.4085 -12.3609 -7.77766 21.0652 40.6143 84.6152 1.49312e-006 8.46981e-006 8.56546e-007 -179.762 56.5752 -165.934 -1.09493e-005 -1.0366e-006 -3.00844 8.02898 -4.95134 0.69758 -53.5916 2.07495 -2.05325 -96.4666 25.9631 5.20212 1.65058e-005 2.92615e-006 -1.57411e-006 -21.9665 83.3581 24.1879 5.04346e-006 3.70626e-006 3 -8.0289 -4.95144 -0.697711 173.939 -0.0355446 9.12171 180 7.01399e-015 178.404 171.868 33.4257 -179.016 1.61634e-007 2.66825e-006 0.594703 -17.3398 66.5641 18.4245 8.73148 41.9531 -1.84127 -175.547 13.8496 -0.302534 4.54188e-006 -4.6773e-006 -1.0306 -4.76482 -21.6086 0.0511752 3.1616e-006 -2.58271e-006 -0.295825 19.3702 68.8395 -20.2485 -8.13649 25.2327 3.48774 
47.9094 97.8167 12.5367 0.837761 -3.4611 68.0489 -0.353726 -2.72451 0.355352 -0.692715 -1.4485 0.740032 -0.701521 0.196439 0.751581 27.3094 26.9366 -5.31259 -25.6558 -10.2614 0.31772 56.4851 -12.224 -7.68556 21.567 41.2612 83.1771 1.49312e-006 8.46981e-006 8.56545e-007 -179.777 56.2658 -166.607 -1.09493e-005 -1.0366e-006 -3.00844 8.02898 -4.95134 0.69758 -53.7778 2.03784 -1.99869 -96.5364 26.0908 5.5931 1.65058e-005 2.92615e-006 -1.57411e-006 -22.0898 83.3429 24.306 5.04346e-006 3.70626e-006 3 -8.0289 -4.95144 -0.697711 174.056 -0.123009 9.06833 180 7.01398e-015 178.403 171.869 33.4217 -179.015 1.61634e-007 2.66825e-006 0.595116 -17.3346 66.559 18.4209 8.73949 41.7694 -1.88656 -175.534 13.8041 -0.261096 4.54188e-006 -4.6773e-006 -1.02962 -4.71011 -21.5176 0.0660803 3.1616e-006 -2.58271e-006 -0.295051 19.3819 68.8543 -20.2619 -8.13649 25.2327 3.48774 
47.9088 97.8225 12.5443 0.842811 -3.49939 68.4541 -0.360733 -2.72442 0.36139 -0.706476 -1.4484 0.752693 -0.715433 0.19654 0.764473 27.0285 26.8922 -5.40701 -25.2221 -10.3096 0.176809 56.5602 -12.0844 -7.59199 22.1316 41.8837 81.6105 1.49312e-006 8.46981e-006 8.56545e-007 -179.791 55.9721 -167.328 -1.09493e-005 -1.0366e-006 -3.00844 8.02898 -4.95134 0.69758 -53.9678 1.99979 -1.94307 -96.6017 26.2149 5.98587 1.65058e-005 2.92615e-006 -1.57411e-006 -22.2137 83.3299 24.4248 5.04346e-006 3.70626e-006 3 -8.0289 -4.95144 -0.697711 174.175 -0.21268 9.01293 180 7.01398e-015 178.401 171.872 33.4144 -179.016 1.61634e-007 2.66825e-006 0.595443 -17.3296 66.5541 18.4174 8.74709 41.5837 -1.9318 -175.519 13.7553 -0.220003 4.54188e-006 -4.6773e-006 -1.02862 -4.6556 -21.4227 0.0809892 3.1616e-006 -2.58271e-006 -0.294283 19.3931 68.8687 -20.275 -8.13649 25.2327 3.48774 
47.975 97.848 12.5877 0.848864 -3.53686 68.8584 -0.367848 -2.72405 0.36763 -0.720446 -1.44777 0.765769 -0.729559 0.197166 0.777785 26.7376 26.8512 -5.4997 -24.7764 -10.3613 0.0364185 56.6325 -11.9427 -7.49738 22.7535 42.4743 79.9295 1.49312e-006 8.46981e-006 8.56545e-007 -179.81 55.6988 -168.082 -1.09493e-005 -1.0366e-006 -3.00844 8.02898 -4.95134 0.69758 -54.1614 1.96067 -1.88637 -96.6623 26.3361 6.38033 1.65058e-005 2.92615e-006 -1.57411e-006 -22.3385 83.3193 24.5448 5.04346e-006 3.70626e-006 3 -8.0289 -4.95144 -0.697711 174.294 -0.303802 8.95596 180 7.01397e-015 178.4 171.876 33.4042 -179.016 1.61634e-007 2.66825e-006 0.595696 -17.3248 66.5494 18.4141 8.75441 41.3966 -1.9773 -175.505 13.7043 -0.179315 4.54188e-006 -4.6773e-006 -1.02761 -4.60152 -21.3251 0.0958305 3.1616e-006 -2.58271e-006 -0.293523 19.404 68.8829 -20.2879 -8.13649 25.2327 3.48774 
